<svg id="Layer_1" data-name="Layer 1" xmlns="http://www.w3.org/2000/svg" viewBox="0 0 1620 1080"><defs><style>.cls-1{fill:#d9d6f1;}.cls-2{fill:#6f6ebe;}.cls-3{fill:#f2e357;}.cls-4{fill:#f6e6ab;}.cls-5{fill:#ffa5a2;}.cls-6{fill:none;stroke:#6f6ebe;stroke-linecap:round;stroke-linejoin:round;stroke-width:10px;}.cls-7{fill:#fff;}</style></defs><rect class="cls-1" width="1620" height="1080"/><path class="cls-2" d="M339.06,633.72a129,129,0,0,1-32.48-4.08c-65.47-17-95.15-79.12-95-129.59,0-53.81,25.17-87.95,46.29-107.11,25.6-23.21,59.85-37.07,91.64-37.07,13.51,0,25.8,2.45,36.54,7.29l.26.12.25.13a12.1,12.1,0,0,1-1,21.92l-.87.35-.91.18c-26.65,5.36-49.77,20.74-63.41,42.19C308,447.38,304.42,469.48,309.9,492c10.09,42.69,32,61.7,70.93,61.7,18.3,0,40.45-4.44,65.82-13.21a11.92,11.92,0,0,1,3.93-.67,12.25,12.25,0,0,1,9.86,5.09,12.59,12.59,0,0,1,1.82,11.26l-.21.65-.3.62c-18.66,38.66-49.07,63.08-90.39,72.57A144.36,144.36,0,0,1,339.06,633.72Z"/><path class="cls-3" d="M381.76,376.29a2.09,2.09,0,0,0,.16-3.78c-54.59-24.6-160.36,22.42-160.36,127.8-.11,41.64,23.28,103.17,87.53,119.89,19.64,5.11,40.25,4.82,60,.28,39.57-9.09,67-32.74,83.63-67.17.58-1.8-1.07-3.78-2.84-3.15-103,35.6-137.36-3.22-149.72-55.58C286.44,438.21,325.85,387.54,381.76,376.29Z"/><path class="cls-2" d="M297.4,537.55c-2.48,0-15.16-.68-20.87-9.66-3.87-6.09-5.75-16.15-1.86-23.62,2.91-5.57,8.51-8.93,15.35-9.22l.72,0a15.48,15.48,0,0,1,11.89,5.44c7.17,8.32,5.5,24,4.82,28.55l-1.29,8.67Z"/><path class="cls-4" d="M297.56,527.56s-9.49-.15-12.6-5-5-17,5.48-17.48S297.56,527.56,297.56,527.56Z"/><path class="cls-2" d="M358.66,590.42c-27.91,0-46.13-13-56.5-23.89-11.56-12.14-19-27.91-18.53-39.35,0-5.66,1-8.34,2.24-11,.58-1.29,1.24-2.75,1.79-8.5a96,96,0,0,1,11.22-37.17c9.63-17.53,29.36-38.82,68.66-40.64h.63c23.77.4,42.64,7.81,56.07,22C443.17,472,443.63,497.62,443.32,505a70.62,70.62,0,0,1-1.09,9.43,13.76,13.76,0,0,1,11.27,8.84c2.5,6.59,2.72,17.26-2.69,25.09-3.17,4.6-9.46,10.07-21.38,10.08l-1.66,0a65.54,65.54,0,0,1-15.66,16.2c-12.69,9.3-29,14.56-48.44,15.65C362,590.37,360.31,590.42,358.66,590.42Z"/><path class="cls-4" d="M368,439.85c53.78.89,66.3,41.47,65.33,64.74-.59,11.71-4,16.18-2.22,19.39,1.78,2.83,11-2.65,13,2.83s2.81,21.78-15,21.63c-2.67-1.18-3.71-3-5.93-1.33s-12.45,30.52-60.15,33.19-70.22-37.93-69.48-52.89c0-8.82,2.67-4.74,4-19C297.63,508.44,300.89,443,368,439.85Z"/><circle class="cls-5" cx="401.15" cy="546.13" r="6.89"/><path class="cls-6" d="M320.89,511.84c4.11-7.88,18.45-4.17,18.44,4.6"/><path class="cls-6" d="M376.85,520.3c4.59-7.62,18.68-3,18.13,5.73"/><path class="cls-6" d="M333.11,538.67c5.67,15.55,28.67,18.22,37.78,5.44"/><path class="cls-6" d="M351.28,454.94c-1.84,10.73,3.11,23.67,14.16,29.39"/><path class="cls-6" d="M377.71,463.2c-.35,9.3,6.35,17,14.79,22.3"/><path class="cls-2" d="M521,329.28A243.17,243.17,0,0,0,105.89,501.22V668.44A121.58,121.58,0,0,0,227.33,789.89H470.78A121.58,121.58,0,0,0,592.22,668.44V501.22A241.56,241.56,0,0,0,521,329.28ZM115.89,501.22c0-128.57,104.6-233.16,233.17-233.16S582.22,372.65,582.22,501.22V647.85H115.89Z"/><path class="cls-2" d="M190.61,605.68l11.15-5.95,3.23,6-29.44,15.7-6.73-12.6q-2.7-5.07-1.49-8.9a10.25,10.25,0,0,1,5.31-6,10.08,10.08,0,0,1,8-1q3.89,1.2,6.52,6.13Zm-5.56,3-3.5-6.55a4.67,4.67,0,0,0-2.54-2.48,3.91,3.91,0,0,0-3.14.4,4,4,0,0,0-2.11,2.4,4.66,4.66,0,0,0,.62,3.5l3.49,6.56Z"/><path class="cls-2" d="M151.32,564.25,183,553.83l2.14,6.52-13.08,4.3,4.36,13.26,13.08-4.29,2.14,6.51L160,590.55,157.82,584l12.63-4.15-4.35-13.26-12.64,4.15Z"/><path class="cls-2" d="M136.53,544.33l-.86-6.86,7.62-3.84.75,6ZM149.19,524a17.39,17.39,0,0,1,31.16,8.64,16.77,16.77,0,0,1-3.34,13,18.32,18.32,0,0,1-24.72,3.1,18.17,18.17,0,0,1-3.1-24.71ZM170,526.62a12.41,12.41,0,0,0-15.62,2A10.36,10.36,0,0,0,156.19,543a12.4,12.4,0,0,0,15.63-2A10.39,10.39,0,0,0,170,526.62Z"/><path class="cls-2" d="M156.12,503.4l22,1.42-.43,6.66-33.3-2.15.44-6.83,23-13.18-22.09-1.42.43-6.66,33.3,2.15-.44,6.89Z"/><path class="cls-2" d="M172.81,457.56l-6-1.55,3.61-13.87c.46.09,1,.22,1.69.39q7.47,1.94,10.89,7.73a16.06,16.06,0,0,1,1.63,12.67,16.68,16.68,0,0,1-7.68,10.7q-5.81,3.42-13.3,1.47t-10.9-7.86a17.83,17.83,0,0,1,4.4-22.36,15,15,0,0,1,10.17-3.16l-1.85,7.14a7.45,7.45,0,0,0-5,1.95,9.9,9.9,0,0,0-3,5.06,9.17,9.17,0,0,0,1,7.69,11.29,11.29,0,0,0,7,4.53,11.47,11.47,0,0,0,8.33-.57,9.12,9.12,0,0,0,4.69-6.19,9.94,9.94,0,0,0-.2-6.15,8.58,8.58,0,0,0-3.74-4.44Z"/><path class="cls-2" d="M209.15,406.06l-4.1,7.4-17.14,1.36,2.4,7.14,7.69,4.25-3.32,6-29.2-16.16,3.32-6,13.9,7.69-7.32-19.58,4.32-7.81,6,17.82Z"/><path class="cls-2" d="M201.83,362.59l25.82,21.13L223.31,389l-10.66-8.72-8.84,10.81,10.66,8.72-4.35,5.31L184.3,384l4.34-5.31,10.29,8.43,8.84-10.81-10.29-8.42Z"/><path class="cls-2" d="M212.79,337.82l5.23-4.44,2.32,8.58-4.61,3.89Zm21.67,39.6L229,382l-12.23-33.36,5.79-4.9,30.71,17.73-5.21,4.41-5.26-3.07-10.47,8.86Zm-9.23-24.83,0,0,4.84,13,7.13-6Z"/><path class="cls-2" d="M244.82,327.72l14.78,6.63,2.36-16,5.52-3,16,29.26-5.77,3.16-10.94-19.94-2.43,15.11-.17.09-14.05-6.07,11,19.94L255.35,360l-16.06-29.26Z"/><path class="cls-2" d="M301.87,333.94q-5.65-3.68-7.3-11.26t2-13.27a16.2,16.2,0,0,1,10.74-7.23,16.78,16.78,0,0,1,11.29,1.16,14.57,14.57,0,0,1,7.28,8.19l-7.17,1.55a8.07,8.07,0,0,0-4.05-4.05,9.49,9.49,0,0,0-6-.47,8.81,8.81,0,0,0-6.25,4.34,13.68,13.68,0,0,0,3.34,15.43,8.77,8.77,0,0,0,7.49,1.36,9.43,9.43,0,0,0,5.24-2.89,8.06,8.06,0,0,0,2-5.36l7.17-1.55a14.61,14.61,0,0,1-3.24,10.46,16.86,16.86,0,0,1-9.8,5.73A16.22,16.22,0,0,1,301.87,333.94Z"/><path class="cls-2" d="M361,298.26l.56,33.36-6.86.12L354.49,318l-14,.23.23,13.77-6.86.12-.56-33.37,6.86-.11.23,13.3,13.95-.24-.22-13.3Z"/><path class="cls-2" d="M391.44,333.93A15.61,15.61,0,0,1,371.6,330q-3.24-4.43-1.9-11.29l3.79-19.28,6.73,1.32-3.82,19.46a8.61,8.61,0,0,0,.66,6,8.15,8.15,0,0,0,10.75,2.11,8.61,8.61,0,0,0,2.89-5.32l3.82-19.46,6.73,1.32-3.78,19.28Q396.12,331.07,391.44,333.93Z"/><path class="cls-2" d="M430.36,315.71l7.37,3L418.2,334.22,413.85,345l-6.36-2.56,4.35-10.81-3.33-24.74,7.37,3,1.75,16.54h0Z"/><path class="cls-2" d="M450.16,357.88l-3.31,5.36-20.44-12.62,17.53-28.39,20.43,12.61-3.3,5.36-14.6-9-3.68,6,14,8.64-3.31,5.36-14-8.64-3.92,6.36Zm1.45-39.31,8.49.65,4.39,7.3L461.72,331l-4.49-7.13-8.39-.81Z"/><path class="cls-2" d="M470.23,353.94,455.46,370.3l-4.95-4.47,22.35-24.77,5.09,4.58-4,26.24,14.83-16.44,4.95,4.47-22.35,24.78-5.13-4.63Z"/><path class="cls-2" d="M499.16,422.85l-4.68-7.05L501.17,400l-7.44-1.16-7.32,4.87-3.8-5.71,27.79-18.48,3.8,5.71L501,394l20.75,2.51,4.94,7.44-18.57-2.89Z"/><path class="cls-2" d="M541.14,436.37,510.5,449.59l-2.72-6.3,12.65-5.46L514.9,425l-12.65,5.46-2.71-6.3L530.18,411l2.72,6.3-12.22,5.27,5.53,12.82,12.21-5.27Z"/><path class="cls-2" d="M546.84,476.26a18.3,18.3,0,0,1-24.34,5.28,18.16,18.16,0,0,1-5.28-24.34,17.61,17.61,0,0,1,29.62,19.06Zm-21-.74a12.39,12.39,0,0,0,15.39-3.34,10.39,10.39,0,0,0-3.09-14.24,12.42,12.42,0,0,0-15.39,3.34,10.39,10.39,0,0,0,3.09,14.24Z"/><path class="cls-2" d="M519.47,493.94l-.25-7.18L553,497.61l.28,7.75-32.93,13.16-.24-6.82,5.66-2.23-.48-13.7ZM544.69,502v-.11l-13.17-4.16.32,9.34Z"/><path class="cls-2" d="M539.42,542.74l-21.62-4.3,1.31-6.55,32.73,6.51-1.34,6.72-24.56,10,21.7,4.32-1.3,6.54-32.73-6.51,1.35-6.77Z"/><path class="cls-2" d="M532.68,603l-31-12.4,2.55-6.37L517,589.37l5.19-13-12.78-5.12,2.55-6.37,31,12.41-2.55,6.37-12.35-5-5.19,13,12.35,4.94Z"/><path class="cls-2" d="M524.26,618.06l-29.12-16.3,3.35-6,29.12,16.3Z"/><path class="cls-7" d="M508.12,695.38v39H496.88V675.32h11.53L533,714.51V675.32h11.23V734.4H532.64Z"/><path class="cls-7" d="M412.25,683.06q8.63,8.7,8.63,22t-8.63,22q-8.62,8.7-22,8.71t-22-8.71q-8.62-8.7-8.62-22t8.62-22q8.63-8.7,22-8.7T412.25,683.06Zm-9.12,35.85q5-5.26,5-13.88t-5-13.89a18.33,18.33,0,0,0-25.7,0q-5,5.26-5,13.89t5,13.88a18.33,18.33,0,0,0,25.7,0Z"/><path class="cls-7" d="M479.71,683q8.64,8.7,8.65,22t-8.6,22q-8.61,8.71-22,8.73t-22-8.68q-8.62-8.68-8.65-22t8.6-22q8.61-8.72,22-8.73T479.71,683Zm-9.08,35.86q5-5.26,5-13.89t-5-13.88a18.33,18.33,0,0,0-25.71,0q-5,5.28-5,13.89t5,13.88a18.31,18.31,0,0,0,25.7,0Z"/><path class="cls-7" d="M278,732.59a8.91,8.91,0,0,1-11.84,0,7.69,7.69,0,0,1-2.32-5.8,7.86,7.86,0,0,1,2.32-5.8,8.63,8.63,0,0,1,11.8,0,7.81,7.81,0,0,1,2.35,5.8A7.72,7.72,0,0,1,278,732.59Z"/><path class="cls-7" d="M302.58,676.33l18.31,22.54,18.3-22.54H351v58.21H338.66V694.86l-17.6,21.07h-.35l-17.6-21.07v39.68H290.79V676.33Z"/><path class="cls-7" d="M259.06,734.77h-13l-10.22-22.34H225.07v22.34H213.85v-59H238.6q8.7,0,13.46,5.07t4.77,13.37a20.74,20.74,0,0,1-2.5,10.38,15.16,15.16,0,0,1-7.19,6.48Zm-15.23-35.34a7.26,7.26,0,0,0,1.77-5.19,7.59,7.59,0,0,0-1.81-5.32,6.63,6.63,0,0,0-5.19-2H225.07V701.3H238.6A6.89,6.89,0,0,0,243.83,699.43Z"/><path class="cls-7" d="M174.54,735.26H154v-59h20.58q14.28,0,22.23,8.15t7.95,21.37q0,13.21-7.95,21.36T174.54,735.26Zm13.27-16q4.49-4.87,4.48-13.51t-4.48-13.51q-4.47-4.87-13.59-4.87h-8.48v36.75h8.48Q183.33,724.12,187.81,719.26Z"/><path class="cls-2" d="M1367.83,657.83v69.45h-19.74V622.14h20.26l43.27,69.73V622.14h19.73V727.28h-20.43Z"/><path class="cls-2" d="M1199.4,635.91q15.15,15.48,15.15,39.09t-15.15,39.09q-15.17,15.49-38.61,15.49t-38.61-15.49Q1107,698.61,1107,675t15.16-39.09q15.15-15.49,38.61-15.49T1199.4,635.91Zm-16,63.8q8.75-9.36,8.74-24.71t-8.74-24.71q-8.74-9.36-22.58-9.37t-22.59,9.37q-8.75,9.38-8.74,24.71t8.74,24.71q8.74,9.38,22.59,9.37T1183.37,699.71Z"/><path class="cls-2" d="M1317.76,635.8q15.18,15.47,15.2,39.08t-15.1,39.1q-15.15,15.51-38.6,15.54t-38.62-15.44q-15.18-15.48-15.2-39.08t15.1-39.11q15.14-15.51,38.59-15.53T1317.76,635.8Zm-16,63.82q8.73-9.37,8.71-24.72t-8.77-24.7q-8.74-9.36-22.59-9.34t-22.57,9.39q-8.73,9.39-8.71,24.72t8.77,24.7q8.74,9.36,22.59,9.34T1301.81,699.62Z"/><path class="cls-2" d="M963.47,724.06a15.55,15.55,0,0,1-20.8,0,13.82,13.82,0,0,1-4.08-10.33,14.11,14.11,0,0,1,4.08-10.32,14.66,14.66,0,0,1,20.8,20.65Z"/><path class="cls-2" d="M1006.7,623.93l32.16,40.12L1071,623.93h20.72V727.52h-21.65V656.9l-30.92,37.5h-.62l-30.92-37.5v70.62H986V623.93Z"/><path class="cls-2" d="M930.22,727.93H907.39l-18-39.76H870.51v39.76H850.79V623h43.5q15.26,0,23.64,9t8.37,23.8a37.15,37.15,0,0,1-4.39,18.48,26.56,26.56,0,0,1-12.63,11.53ZM903.47,665q3.1-3.33,3.11-9.24t-3.17-9.46q-3.18-3.54-9.12-3.55H870.51v25.58h23.78Q900.37,668.37,903.47,665Z"/><path class="cls-2" d="M781.72,728.81H745.57V623.75h36.15q25.1,0,39.07,14.5t14,38q0,23.54-14,38T781.72,728.81Zm23.33-28.48q7.86-8.66,7.87-24.05t-7.87-24q-7.87-8.65-23.89-8.66H766.27V709h14.89Q797.18,709,805.05,700.33Z"/><path class="cls-2" d="M1514.09,485.08v69.11h-14.21V485.08Z"/><path class="cls-2" d="M1280.07,554.28h-14.79L1290.05,485h16l24.71,69.28h-14.06l-4.18-11.91h-28.24Zm18.44-51.73h-.22l-9.52,27H1308Z"/><path class="cls-2" d="M1255.43,493.62q10.15,10.26,10.16,25.89t-10.16,25.88q-10.15,10.26-25.89,10.26t-25.88-10.26q-10.17-10.25-10.16-25.88t10.16-25.89q10.15-10.26,25.88-10.25T1255.43,493.62Zm-10.75,42.25q5.86-6.2,5.86-16.36t-5.86-16.36q-5.85-6.21-15.14-6.21a19.89,19.89,0,0,0-15.14,6.21q-5.87,6.19-5.86,16.36t5.86,16.36q5.86,6.21,15.14,6.2T1244.68,535.87Z"/><path class="cls-2" d="M1121.33,554.28h-16.18L1087,524l-9.73,11.71v18.55h-13.13v-70.4h13.13v33.51l26-33.51h17.08l-24.28,29.25Z"/><path class="cls-2" d="M988.52,507.6v46.68H974.39V483.62H988.9l31,46.86V483.62H1034v70.66h-14.63Z"/><path class="cls-2" d="M1371.93,507.6v46.68H1357.8V483.62h14.5l31,46.86V483.62h14.13v70.66h-14.63Z"/><path class="cls-2" d="M962.84,540.44v13.22l-44.66.05-.08-70.05,44.66-.05,0,13.22-31.9,0v14.7l30.59,0,0,13.22-30.59,0,0,15.69Zm-36.18-71.78,14.06-8.21,14.08,8.17v11.05l-14.08-7.77-14.06,7.81Z"/><path class="cls-2" d="M891.92,482.72l16.3,0-25.21,46,0,24.69-14.08,0,0-24.69-25.32-46,16.3,0,16,31.1H876Z"/><path class="cls-2" d="M827.77,547.76q-8.57,7.95-21.41,8t-21.43-7.92q-8.58-7.92-8.6-22.89l-.05-42,14.55,0,0,42.39q0,7.85,3.85,12.36t11.61,4.5q7.77,0,11.6-4.53t3.82-12.36l0-42.4h14.55l0,42Q836.33,539.82,827.77,547.76Z"/><path class="cls-2" d="M764.08,484.69l.09,69.52-14.3,0,0-28.69-29.08,0,0,28.7H706.49l-.09-69.53h14.3l0,27.71,29.09,0,0-27.72Z"/><path class="cls-2" d="M1185.36,484.69v69.53h-14.3V525.53H1142v28.69h-14.29V484.69H1142v27.72h29.09V484.69Z"/><path class="cls-2" d="M1486.39,484.69v69.53H1472.1V525.53H1443v28.69h-14.3V484.69H1443v27.72h29.09V484.69Z"/><path class="cls-2" d="M643.47,545.59q-9.4-9.89-9.42-25.9t9.36-25.93q9.38-9.9,23.78-9.93,12.55,0,21.35,7.26t10.66,19.69l-14.5,0a16.79,16.79,0,0,0-6.15-9.94,18.11,18.11,0,0,0-11.34-3.53q-8.93,0-13.89,6t-5,16.31q0,10.29,5,16.3t13.9,6a18.18,18.18,0,0,0,11.34-3.55,16.87,16.87,0,0,0,6.12-10l14.5,0q-1.85,12.43-10.62,19.72t-21.32,7.3Q652.87,555.48,643.47,545.59Z"/><path class="cls-2" d="M706.12,394.78v30.85H689.58V344.19H724q13.82,0,20.62,7t6.79,18.35q0,11.25-7,18.24t-20.45,7Zm0-15.38H724c3.62,0,6.34-.87,8.16-2.63a9.61,9.61,0,0,0,2.71-7.23,9.78,9.78,0,0,0-2.71-7.28q-2.73-2.7-8.16-2.7h-17.9Z"/><path class="cls-2" d="M828.65,345v81.45H812.11V392.88H778.47v33.61H761.93V345h16.54V377.5h33.64V345Z"/><path class="cls-2" d="M912,354.51q11.78,12,11.78,30.4T912,415.31q-11.79,12-30,12t-30-12q-11.78-12-11.78-30.4T852,354.51q11.79-12,30-12T912,354.51Zm-12.47,49.62q6.79-7.29,6.8-19.22t-6.8-19.21q-6.8-7.29-17.56-7.29t-17.55,7.29q-6.81,7.28-6.8,19.21t6.8,19.22q6.79,7.28,17.55,7.28T899.57,404.13Z"/><path class="cls-2" d="M952.89,371.83v53.8H936.8V344.19h16.51l35.26,54v-54h16.09v81.44H988Z"/><path class="cls-2" d="M1061.88,395.58v-15h34.55c.08,1.15.12,2.57.12,4.25q0,18.81-11.45,30.45t-28.54,11.65q-18.13,0-29.63-11.59t-11.5-30.51q0-18.82,11.73-30.57t29.4-11.76q14.71,0,25.43,8.43A36.7,36.7,0,0,1,1095.53,373h-17.79a18.15,18.15,0,0,0-7.59-10.67,23.7,23.7,0,0,0-13.59-3.9q-11,0-17.34,7.11t-6.34,19.28q0,12,6.4,19.33t17.28,7.28a23.8,23.8,0,0,0,14.21-4.24,21,21,0,0,0,8.1-11.59Z"/><path class="cls-2" d="M1287.91,425.63H1270.6l29-81.44h18.7l28.92,81.44h-16.46l-4.89-14h-33Zm21.58-60.81-.26,0-11.14,31.77h22.52Z"/><path class="cls-2" d="M1372.23,344.19l24.89,31.54,24.9-31.54h16v81.44H1421.3V370.11l-23.94,29.48h-.48L1373,370.11v55.52h-16.76V344.19Z"/><path class="cls-2" d="M869.08,314.38h17.59L894,334H878.65Z"/><path class="cls-2" d="M1313.1,334h-15.32l7.3-19.62h17.6Z"/><path class="cls-2" d="M1262,344.19v81.44h-15.27V392h-31.08v33.61h-15.28V344.19h15.28v32.46h31.08V344.19Z"/><path class="cls-2" d="M1192.52,425.63h-18.28l-20.5-35-11,13.54v21.46h-14.83V344.19h14.83V383l29.35-38.77h19.3L1164,378Z"/></svg>