<svg id="Layer_1" data-name="Layer 1" xmlns="http://www.w3.org/2000/svg" viewBox="0 0 1620 1080"><defs><style>.cls-1{fill:#6553e3;}.cls-2,.cls-3{fill:none;stroke:#fff;stroke-miterlimit:10;}.cls-2{stroke-width:10px;}.cls-3{stroke-width:4px;}.cls-4{fill:#fff;}.cls-5{fill:#ffde59;}</style></defs><rect class="cls-1" width="1620" height="1080"/><path class="cls-2" d="M335.67,253.63h11.26A218.41,218.41,0,0,1,565.33,472V661.48A135.93,135.93,0,0,1,429.41,797.41H253.19A135.93,135.93,0,0,1,117.26,661.48V472A218.41,218.41,0,0,1,335.67,253.63Z"/><line class="cls-3" x1="117.26" y1="662.48" x2="565.33" y2="662.48"/><path class="cls-4" d="M486.73,708.36v37.7H476.61V689H487l22.19,37.85V689h10.13v57.07H508.84Z"/><path class="cls-4" d="M400.33,696.46q7.77,8.41,7.77,21.22t-7.77,21.22a27.54,27.54,0,0,1-39.62,0q-7.77-8.42-7.77-21.22t7.77-21.22q7.79-8.41,19.81-8.41T400.33,696.46Zm-8.22,34.63q4.49-5.08,4.48-13.41t-4.48-13.41a15.73,15.73,0,0,0-23.17,0q-4.49,5.09-4.49,13.41t4.49,13.41a15.73,15.73,0,0,0,23.17,0Z"/><path class="cls-4" d="M461.15,696.47q7.77,8.4,7.79,21.21t-7.75,21.23a25.78,25.78,0,0,1-19.79,8.44q-12,0-19.82-8.39t-7.8-21.21q0-12.81,7.75-21.23a27.55,27.55,0,0,1,39.62,0ZM453,731.12q4.49-5.1,4.47-13.42t-4.5-13.41a15.74,15.74,0,0,0-23.17,0q-4.47,5.08-4.47,13.42t4.5,13.41a15.74,15.74,0,0,0,23.17,0Z"/><path class="cls-4" d="M279.3,744.31a7.67,7.67,0,0,1-10.67,0,7.78,7.78,0,0,1-2.09-5.61,7.92,7.92,0,0,1,2.09-5.6,7.4,7.4,0,0,1,10.63,0,8.5,8.5,0,0,1,0,11.21Z"/><path class="cls-4" d="M301.48,690,318,711.74,334.47,690H345.1v56.23H334V707.86l-15.86,20.35h-.32L302,707.86v38.33H290.85V690Z"/><path class="cls-4" d="M262.24,746.41H250.53l-9.21-21.58h-9.71v21.58H221.5v-57h22.31q7.83,0,12.13,4.89t4.29,12.92a21.18,21.18,0,0,1-2.25,10,14,14,0,0,1-6.48,6.26Zm-13.72-34.14a7.31,7.31,0,0,0,1.6-5,7.74,7.74,0,0,0-1.63-5.14,5.81,5.81,0,0,0-4.68-1.92h-12.2v13.88h12.2A5.93,5.93,0,0,0,248.52,712.27Z"/><path class="cls-4" d="M186.07,746.89H167.52v-57h18.55q12.87,0,20,7.87t7.16,20.64q0,12.76-7.16,20.64T186.07,746.89Zm12-15.46q4-4.7,4-13t-4-13q-4-4.71-12.25-4.7h-7.64v35.5h7.64Q194,736.13,198,731.43Z"/><path class="cls-4" d="M205.86,616.24l10.48-8,4.34,5.68L193,635l-9-11.85q-3.61-4.75-3-8.9a10.7,10.7,0,0,1,4.45-7.09,10.51,10.51,0,0,1,8-2.33q4.2.58,7.74,5.22Zm-5.22,4-4.7-6.16a4.91,4.91,0,0,0-3-2.12,4,4,0,0,0-3.17.94A4.16,4.16,0,0,0,188,615.7a4.87,4.87,0,0,0,1.22,3.5l4.7,6.16Z"/><path class="cls-4" d="M158.75,579.56,189.89,564l3.19,6.4-12.85,6.41,6.49,13,12.85-6.4,3.19,6.4-31.14,15.52-3.19-6.4,12.41-6.19-6.49-13L161.94,586Z"/><path class="cls-4" d="M140.54,560.49l-1.79-7,7.37-5,1.56,6.08ZM151,537.83a19.09,19.09,0,0,1,25.15-6.45,19,19,0,0,1,6.46,25.15,18.13,18.13,0,0,1-33.37-4.84A17.48,17.48,0,0,1,151,537.83Zm21.86-.05a13,13,0,0,0-15.9,4.08,10.85,10.85,0,0,0,3.78,14.72,12.92,12.92,0,0,0,15.9-4.08,10.82,10.82,0,0,0-3.78-14.72Z"/><path class="cls-4" d="M155.64,515.25l23-1,.3,7-34.76,1.47-.31-7.14,22.42-16.21-23.06,1-.29-6.95,34.76-1.47.3,7.19Z"/><path class="cls-4" d="M168.15,465.88l-6.33-1,2.4-14.75c.49.05,1.09.13,1.8.25q7.92,1.29,12,7a16.7,16.7,0,0,1,2.92,13A17.33,17.33,0,0,1,174,482.15q-5.68,4.11-13.66,2.82t-12.08-7.11a18.62,18.62,0,0,1,2.41-23.64A15.67,15.67,0,0,1,161,450l-1.23,7.59a7.81,7.81,0,0,0-5,2.51,10.37,10.37,0,0,0-2.59,5.54,9.59,9.59,0,0,0,1.8,7.89,11.81,11.81,0,0,0,7.68,4,11.94,11.94,0,0,0,8.59-1.41,9.51,9.51,0,0,0,4.28-6.87,10.39,10.39,0,0,0-.81-6.36,8.94,8.94,0,0,0-4.32-4.26Z"/><path class="cls-4" d="M201.62,409.38l-3.7,8-17.72,2.7,3,7.24,8.32,3.85-3,6.49L157,423.08l3-6.49,15,6.94-9.1-19.8,3.91-8.45,7.57,18.07Z"/><path class="cls-4" d="M191.35,364.67l28.14,20.45-4.2,5.79-11.62-8.44-8.55,11.78,11.62,8.43-4.21,5.79L174.38,388l4.21-5.78,11.22,8.15,8.55-11.78-11.22-8.15Z"/><path class="cls-4" d="M201.85,338.05l5.25-4.86,2.8,8.83-4.62,4.27Zm24.34,40.27-5.48,5.06-14.23-34.2,5.82-5.36,32.78,17.1-5.24,4.83-5.61-3-10.51,9.69Zm-10.72-25.44,0,0,5.62,13.28,7.15-6.59Z"/><path class="cls-4" d="M235.21,326l15.59,6.5,2-16.77,5.67-3.31,17.54,30-5.93,3.46-11.95-20.48L256,341.25l-.17.1L241,335.42l12,20.48-5.93,3.46-17.53-30.05Z"/><path class="cls-4" d="M294.86,331.24q-5.89-3.83-7.62-11.73t2-13.83a16.9,16.9,0,0,1,11.18-7.56,17.53,17.53,0,0,1,11.78,1.18,15.24,15.24,0,0,1,7.6,8.52l-7.47,1.64a8.44,8.44,0,0,0-4.23-4.22,9.84,9.84,0,0,0-6.22-.47,9.18,9.18,0,0,0-6.51,4.53,14.26,14.26,0,0,0,3.52,16.09,9.16,9.16,0,0,0,7.8,1.4,9.86,9.86,0,0,0,5.46-3,8.46,8.46,0,0,0,2.09-5.6l7.46-1.63a15.16,15.16,0,0,1-3.35,10.91,17.58,17.58,0,0,1-10.2,6A16.94,16.94,0,0,1,294.86,331.24Z"/><path class="cls-4" d="M357.53,294.76,357,329.54l-7.16-.12.24-14.35-14.55-.25-.24,14.36-7.15-.12.58-34.79,7.16.12-.24,13.87,14.56.24.23-13.86Z"/><path class="cls-4" d="M387.85,332.66a16.26,16.26,0,0,1-20.52-4.74q-3.24-4.73-1.59-11.84l4.61-19.95,7,1.61-4.66,20.14a9,9,0,0,0,.48,6.3c.9,1.72,2.59,2.86,5.07,3.44s4.5.28,6.06-.87a9,9,0,0,0,3.19-5.44l4.66-20.15,7,1.61-4.61,20Q392.83,329.84,387.85,332.66Z"/><path class="cls-4" d="M429.26,315.57l7.52,3.46-21.13,15.19-5.08,11-6.5-3,5.08-11L407,305.29l7.52,3.47,1,17.31h0Z"/><path class="cls-4" d="M447.5,360.83l-3.79,5.36-20.44-14.47,20.1-28.4,20.44,14.47-3.8,5.36-14.6-10.33-4.21,6,14,9.9L451.4,354l-14-9.9-4.5,6.36ZM451.59,320l8.79,1.24,4.09,7.87-3.17,4.48-4.21-7.71-8.67-1.4Z"/><path class="cls-4" d="M468.69,358.27,452,374.1l-4.79-5,25.22-24,4.92,5.18-6.22,27,16.72-15.9,4.8,5.05-25.22,24-5-5.22Z"/><path class="cls-4" d="M492.47,432.48l-4.16-7.78,8.54-15.76-7.6-2-8.09,4.32L477.79,405l30.69-16.39,3.37,6.32-14.61,7.8,21.28,4.69,4.38,8.21-19-4.86Z"/><path class="cls-4" d="M534.35,451.24,501.07,461.4,499,454.55l13.73-4.19-4.24-13.92-13.74,4.2-2.08-6.85,33.27-10.15,2.09,6.84-13.26,4L519,448.45l13.27-4.05Z"/><path class="cls-4" d="M535.19,493.62a18.13,18.13,0,0,1-32.13-10.21,17.48,17.48,0,0,1,4-13.38,18.13,18.13,0,0,1,32.13,10.21A17.48,17.48,0,0,1,535.19,493.62Zm-21.58-3.51A12.92,12.92,0,0,0,530,488.67a10.81,10.81,0,0,0-1.33-15.13A12.92,12.92,0,0,0,512.28,475a10.84,10.84,0,0,0,1.33,15.13Z"/><path class="cls-4" d="M504.49,508.19l.78-7.45,33.3,16.09-.84,8-35.9,8.83.73-7.08,6.17-1.48,1.48-14.22Zm24.87,12v-.11l-13-6.2-1,9.68Z"/><path class="cls-4" d="M517.53,561.69,496,553.6l2.46-6.51L531,559.34,528.52,566l-27,6.14,21.6,8.13-2.45,6.51-32.56-12.25,2.53-6.75Z"/><path class="cls-4" d="M499.6,622.66l-29.43-18.55,3.82-6.06,12.14,7.66,7.76-12.31-12.14-7.66,3.81-6L515,598.24l-3.81,6-11.73-7.39-7.76,12.31,11.73,7.4Z"/><path class="cls-4" d="M487.76,636.62l-26.5-22.54,4.63-5.45,26.51,22.54Z"/><path class="cls-5" d="M215.63,499c0-40.47,23.7-130.84,142.81-134.1,7.13,0,12,.39,15.88,1.4a5.08,5.08,0,0,1-.05,9.82c-31.88,8.35-84.94,40.33-86.27,115.82,0,0-13.78,5.63-13.63,19.7s10.74,19.93,11.85,21c.68,2,16.67,63.41,83.11,62.52,0,0,45,1,74.08-33.85,7.26-9.85,13.63-3,10,4.24-1.83,3.59-32.48,62.5-108.56,62.5C290.22,628,215.63,586.89,215.63,499Z"/><path class="cls-5" d="M443.48,521.63c5.63-21.63,3.85-91-72.59-91a112.06,112.06,0,0,0-13.63.79c-2.08,15.9,2.91,27.46,16.16,37.45a5,5,0,1,1-6,8c-15.15-11.42-21.84-25.72-20.39-43.61C294.59,445.8,295,499,295,499c-8-.12-11.48,6.9-11.82,12.68s3.68,8.55,10.67,13.85c3,18.07,25.89,59.81,73.67,59.37s64.55-35.67,64.77-37.33c15.56,0,19-7.89,19.67-13.45S449.56,524.89,443.48,521.63ZM382.9,441.84a5,5,0,0,1,6.14,3.5A40.13,40.13,0,0,0,406,469a10.14,10.14,0,0,1,1.64,1.24,5,5,0,0,1-6.73,7.39l-.41-.27A49.87,49.87,0,0,1,379.4,448,5,5,0,0,1,382.9,441.84Zm-56.79,71a5,5,0,0,1-2.42-6.64,16,16,0,0,1,16.78-9.35A15.32,15.32,0,0,1,353.4,510.3a5,5,0,0,1-4.26,5.65,5.49,5.49,0,0,1-.7,0,5,5,0,0,1-4.95-4.3,5.34,5.34,0,0,0-4.49-4.93,5.87,5.87,0,0,0-6.25,3.68A5,5,0,0,1,326.11,512.86Zm66.18,39.59c-6.3,7-15.41,9.57-24,9.57a46.25,46.25,0,0,1-10.69-1.27c-12.48-3-21.71-10.47-24.07-19.48a5,5,0,1,1,9.67-2.54c1.39,5.28,8.12,10.22,16.75,12.3,10.1,2.44,19.89.37,24.92-5.25a5,5,0,1,1,7.45,6.67Zm17.2-27.2a5.62,5.62,0,0,1-.7,0,5,5,0,0,1-5-4.3,5.36,5.36,0,0,0-4.5-4.94,5.86,5.86,0,0,0-6.24,3.68,5,5,0,1,1-9.06-4.23,16,16,0,0,1,16.78-9.34c6.84,1,11.91,6.29,12.92,13.43A5,5,0,0,1,409.49,525.25Z"/><path class="cls-4" d="M1372.13,645.37v72.11h-20.5V608.31h21l44.92,72.41V608.31h20.49V717.48h-21.21Z"/><path class="cls-4" d="M1195.63,622.69q15.7,16,15.71,40.52t-15.71,40.51q-15.7,16-40,16t-40-16q-15.7-16.05-15.7-40.51t15.7-40.52q15.7-16.05,40-16.05T1195.63,622.69ZM1179,688.81q9.06-9.7,9.06-25.6T1179,637.6q-9.06-9.72-23.4-9.71t-23.41,9.71q-9.06,9.71-9.06,25.61t9.06,25.6q9.06,9.72,23.41,9.71T1179,688.81Z"/><path class="cls-4" d="M1318.08,622.83q15.68,16,15.71,40.39t-15.62,40.43q-15.64,16-39.89,16.06t-39.93-16q-15.69-16-15.71-40.4t15.62-40.43q15.65-16,39.89-16T1318.08,622.83Zm-16.49,66q9-9.69,9-25.55t-9.07-25.53q-9-9.68-23.36-9.66t-23.33,9.71q-9,9.71-9,25.56t9.07,25.53q9,9.67,23.36,9.65T1301.59,688.8Z"/><path class="cls-4" d="M947.53,715a15.52,15.52,0,0,1-20.8,0,13.79,13.79,0,0,1-4.07-10.32,14.13,14.13,0,0,1,4.07-10.33,14.51,14.51,0,0,1,24.87,10.33A13.79,13.79,0,0,1,947.53,715Z"/><path class="cls-4" d="M992.81,608.28l33.79,42.15,33.79-42.15h21.77V717.12h-22.74v-74.2l-32.49,39.4h-.65l-32.49-39.4v74.2H971.05V608.28Z"/><path class="cls-4" d="M915.22,717.48H891.47l-18.69-41.36H853.11v41.36H832.59V608.32h45.25q15.87,0,24.59,9.38t8.71,24.75a38.73,38.73,0,0,1-4.56,19.22,27.69,27.69,0,0,1-13.14,12ZM887.4,652.06q3.23-3.46,3.23-9.61t-3.3-9.84q-3.32-3.69-9.49-3.69H853.11v26.6h24.73Q884.17,655.52,887.4,652.06Z"/><path class="cls-4" d="M760.63,717.12H723.28V608.6h37.35q25.92,0,40.35,15t14.42,39.28q0,24.3-14.42,39.28T760.63,717.12Zm24.09-29.42q8.13-9,8.13-24.84T784.72,638q-8.13-8.94-24.68-8.94H744.66v67.56H760Q776.59,696.64,784.72,687.7Z"/><path class="cls-4" d="M1522.8,474.23v73.94h-15.21V474.23Z"/><path class="cls-4" d="M1276.35,548.44h-15.81L1287,474.39h17.08l26.41,74.05h-15L1311,535.72h-30.18Zm19.71-55.29-.24,0-10.17,28.89h20.56Z"/><path class="cls-4" d="M1250,484q10.77,10.86,10.77,27.43T1250,538.85q-10.77,10.88-27.43,10.87t-27.43-10.87q-10.77-10.87-10.77-27.43T1195.12,484q10.76-10.87,27.43-10.87T1250,484Zm-11.39,44.77q6.23-6.57,6.22-17.34t-6.22-17.34q-6.21-6.57-16-6.57t-16,6.57q-6.21,6.57-6.21,17.34t6.21,17.34q6.21,6.57,16,6.57T1238.59,528.76Z"/><path class="cls-4" d="M1109.45,548h-17l-19-31.74-10.21,12.28V548h-13.77V474.15h13.77v35.16l27.26-35.16h17.93l-25.47,30.68Z"/><path class="cls-4" d="M963.47,499.44v49H948.63V474.25h15.23l32.53,49.21V474.25h14.83v74.19H995.86Z"/><path class="cls-4" d="M1372.07,499.21v49.18h-14.89V473.94h15.28l32.64,49.38V473.94H1420v74.45h-15.42Z"/><path class="cls-4" d="M939.09,534.48l0,13.91-47,.06L892,474.73l47-.05,0,13.91-33.57,0V504.1l32.19,0,0,13.92-32.19,0,0,16.51ZM901,458.94l14.79-8.64,14.82,8.61,0,11.62-14.82-8.18L901,470.57Z"/><path class="cls-4" d="M867.94,474.46l16.95,0L858.67,522.3l0,25.67H844.07l0-25.67-26.33-47.79,16.94,0,16.66,32.33h.05Z"/><path class="cls-4" d="M804.13,540.28q-8.75,8.12-21.86,8.13t-21.88-8.08q-8.76-8.08-8.77-23.37l0-42.87,14.85,0,.05,43.28q0,8,3.93,12.61c2.61,3.07,6.57,4.61,11.85,4.6s9.24-1.55,11.85-4.63,3.91-7.29,3.9-12.62L798,474l14.85,0,.05,42.87Q812.87,532.17,804.13,540.28Z"/><path class="cls-4" d="M738.53,474.23l.09,73.87-15.19,0,0-30.49-30.91,0,0,30.49H677.34l-.09-73.87,15.19,0,0,29.45,30.9,0,0-29.44Z"/><path class="cls-4" d="M1176,474.24v74.2H1160.7V517.82h-31v30.62H1114.4v-74.2h15.26v29.57h31V474.24Z"/><path class="cls-4" d="M1495.11,474.24v74.09h-15.23V517.75h-31v30.58h-15.23V474.24h15.23v29.53h31V474.24Z"/><path class="cls-4" d="M616.76,538.47Q607,528.19,607,511.56t9.72-26.94q9.75-10.29,24.71-10.31,13.05,0,22.18,7.53t11.08,20.46l-15.07,0A17.42,17.42,0,0,0,653.21,492a18.92,18.92,0,0,0-11.79-3.67q-9.27,0-14.43,6.27t-5.15,17q0,10.69,5.19,16.94t14.45,6.23A18.79,18.79,0,0,0,653.25,531a17.49,17.49,0,0,0,6.37-10.35h15.06q-1.92,12.9-11,20.48t-22.16,7.59Q626.52,548.75,616.76,538.47Z"/><path class="cls-4" d="M692.87,388.08V420H675.65V335.69h35.86q14.38,0,21.47,7.24t7.08,19q0,11.64-7.26,18.89t-21.29,7.25Zm0-15.92h18.64q5.67,0,8.49-2.74a9.89,9.89,0,0,0,2.83-7.48A10.09,10.09,0,0,0,720,354.4c-1.88-1.86-4.71-2.8-8.49-2.8H692.87Z"/><path class="cls-4" d="M819.13,335.47v83.71h-17V384.63H767.55v34.55h-17V335.47h17v33.36h34.58V335.47Z"/><path class="cls-4" d="M905.7,348q11.89,12.15,11.89,30.67T905.7,409.3q-11.9,12.15-30.3,12.16T845.11,409.3q-11.9-12.15-11.89-30.68T845.11,348Q857,335.79,875.4,335.79T905.7,348ZM893.12,398q6.87-7.35,6.86-19.39t-6.86-19.39q-6.86-7.35-17.72-7.35t-17.72,7.35q-6.85,7.35-6.86,19.39T857.68,398q6.87,7.37,17.72,7.36T893.12,398Z"/><path class="cls-4" d="M948.1,364.38v55.54H931.5V335.84h17l36.4,55.77V335.84h16.61v84.08H984.36Z"/><path class="cls-4" d="M1060.72,389.51V374.29h35c.07,1.16.11,2.59.11,4.3q0,19.07-11.59,30.85t-28.92,11.8q-18.37,0-30-11.74t-11.65-30.91q0-19.06,11.88-31t29.79-11.91q14.91,0,25.76,8.54a37.22,37.22,0,0,1,13.72,22.38h-18a18.39,18.39,0,0,0-7.69-10.81,24,24,0,0,0-13.77-3.95q-11.14,0-17.57,7.2t-6.42,19.53q0,12.2,6.48,19.58t17.51,7.38a24.13,24.13,0,0,0,14.4-4.3,21.34,21.34,0,0,0,8.21-11.74Z"/><path class="cls-4" d="M1304.86,420h-17.92l30-84.35h19.37l30,84.35h-17l-5.07-14.49H1310Zm22.36-63H1327l-11.54,32.91h23.32Z"/><path class="cls-4" d="M1392.2,335.51,1418,368.18l25.79-32.67h16.61v84.35H1443v-57.5l-24.79,30.53h-.5l-24.79-30.53v57.5h-17.36V335.51Z"/><path class="cls-4" d="M866.2,306.62h17.6l7.3,19.61H875.78Z"/><path class="cls-4" d="M1330.23,327.57h-15.32l7.3-19.62h17.6Z"/><path class="cls-4" d="M1275.55,336.39v83.33h-15.63V385.33h-31.8v34.39h-15.63V336.39h15.63v33.22h31.8V336.39Z"/><path class="cls-4" d="M1200.68,419.86h-18.86l-21.15-36.11-11.34,14v22.14H1134v-84h15.3v40l30.29-40h19.91l-28.29,34.91Z"/></svg>