<svg id="Layer_1" data-name="Layer 1" xmlns="http://www.w3.org/2000/svg" viewBox="0 0 509.48 559.41"><defs><style>.cls-1,.cls-6{fill:none;}.cls-1{stroke:#000;stroke-miterlimit:10;}.cls-2{fill:#6f6ebe;}.cls-3{fill:#f2e357;}.cls-4{fill:#f6e6ab;}.cls-5{fill:#ffa5a2;}.cls-6{stroke:#6f6ebe;stroke-linecap:round;stroke-linejoin:round;stroke-width:10px;}.cls-7{fill:#fff;}</style></defs><path class="cls-1" d="M541.37,338.56a254.25,254.25,0,0,0-434,179.77V688.26c0,74,60.22,134.24,134.24,134.24h240c74,0,134.24-60.22,134.24-134.24V518.33A252.56,252.56,0,0,0,541.37,338.56Zm56.46,334.33H125.35V518.33c0-130.26,106-236.24,236.24-236.24s236.24,106,236.24,236.24Z" transform="translate(-106.85 -263.59)"/><path class="cls-2" d="M533.59,346.34a243.25,243.25,0,0,0-415.24,172V688.26A123.39,123.39,0,0,0,241.59,811.5h240A123.38,123.38,0,0,0,604.83,688.26V518.33A241.64,241.64,0,0,0,533.59,346.34Zm64.24,326.55H125.35V518.33c0-130.26,106-236.24,236.24-236.24s236.24,106,236.24,236.24Z" transform="translate(-106.85 -263.59)"/><path class="cls-2" d="M358.78,645.61a129.06,129.06,0,0,1-32.48-4.08c-65.47-17-95.15-79.12-95-129.59,0-53.81,25.18-87.95,46.3-107.11,25.59-23.21,59.85-37.07,91.63-37.07,13.51,0,25.81,2.45,36.54,7.29l.26.11.26.14a12.1,12.1,0,0,1-1,21.92l-.87.35-.92.18c-26.65,5.36-49.76,20.74-63.41,42.18-12.29,19.34-15.9,41.44-10.41,63.94,10.08,42.69,31.95,61.7,70.92,61.7,18.31,0,40.45-4.44,65.82-13.21a11.73,11.73,0,0,1,3.94-.67,12.24,12.24,0,0,1,9.85,5.09A12.63,12.63,0,0,1,482,568l-.22.65-.29.62c-18.66,38.66-49.08,63.07-90.4,72.57A144.36,144.36,0,0,1,358.78,645.61Z" transform="translate(-106.85 -263.59)"/><path class="cls-3" d="M401.48,388.18a2.09,2.09,0,0,0,.16-3.78c-54.58-24.6-160.36,22.42-160.36,127.8-.11,41.64,23.28,103.17,87.54,119.88,19.64,5.11,40.24,4.83,60,.29,39.57-9.09,67-32.74,83.63-67.17.58-1.8-1.07-3.78-2.83-3.16-103,35.61-137.36-3.21-149.73-55.57C306.17,450.09,345.58,399.43,401.48,388.18Z" transform="translate(-106.85 -263.59)"/><path class="cls-2" d="M317.12,549.44c-2.48,0-15.15-.68-20.87-9.66-3.87-6.09-5.75-16.15-1.85-23.62,2.91-5.57,8.5-8.94,15.35-9.23h.72a15.48,15.48,0,0,1,11.88,5.44c7.17,8.32,5.5,24,4.82,28.55l-1.29,8.67Z" transform="translate(-106.85 -263.59)"/><path class="cls-4" d="M317.28,539.44s-9.48-.14-12.59-5-5-17,5.48-17.48S317.28,539.44,317.28,539.44Z" transform="translate(-106.85 -263.59)"/><path class="cls-2" d="M378.39,602.31c-27.91,0-46.13-13-56.51-23.89-11.55-12.14-19-27.91-18.53-39.35,0-5.67,1-8.34,2.24-11,.58-1.29,1.24-2.75,1.79-8.5a96,96,0,0,1,11.23-37.17c9.63-17.53,29.35-38.82,68.65-40.64h.63c23.78.39,42.64,7.81,56.07,22.05,18.93,20.06,19.4,45.72,19.09,53.11a72.13,72.13,0,0,1-1.1,9.43,13.75,13.75,0,0,1,11.28,8.83c2.49,6.6,2.71,17.27-2.69,25.1-3.18,4.59-9.47,10.07-21.39,10.07h-1.66a65.54,65.54,0,0,1-15.66,16.2c-12.68,9.3-29,14.56-48.44,15.65C381.72,602.26,380,602.31,378.39,602.31Z" transform="translate(-106.85 -263.59)"/><path class="cls-4" d="M387.72,451.74c53.78.89,66.31,41.46,65.34,64.74-.6,11.7-4,16.18-2.22,19.38,1.77,2.84,11-2.64,13,2.84s2.82,21.78-15,21.63c-2.67-1.18-3.7-3-5.93-1.33s-12.44,30.52-60.14,33.18-70.23-37.92-69.49-52.88c0-8.82,2.67-4.75,4-19C317.35,520.33,320.61,454.85,387.72,451.74Z" transform="translate(-106.85 -263.59)"/><circle class="cls-5" cx="314.02" cy="294.43" r="6.89"/><path class="cls-6" d="M340.61,523.73c4.11-7.89,18.46-4.18,18.45,4.6" transform="translate(-106.85 -263.59)"/><path class="cls-6" d="M396.58,532.19c4.59-7.62,18.67-3,18.12,5.73" transform="translate(-106.85 -263.59)"/><path class="cls-6" d="M352.84,550.56c5.66,15.55,28.66,18.22,37.77,5.44" transform="translate(-106.85 -263.59)"/><path class="cls-6" d="M371,466.83c-1.83,10.72,3.11,23.67,14.17,29.39" transform="translate(-106.85 -263.59)"/><path class="cls-6" d="M397.43,475.09c-.34,9.3,6.35,17,14.79,22.3" transform="translate(-106.85 -263.59)"/><path class="cls-2" d="M217.73,633.51l10.8-7.55,4.1,5.86-28.51,19.93-8.54-12.21q-3.42-4.9-2.66-9a10.74,10.74,0,0,1,4.75-6.9,10.48,10.48,0,0,1,8.11-2q4.17.76,7.51,5.54Zm-5.38,3.76-4.44-6.35a4.9,4.9,0,0,0-2.94-2.24,4.05,4.05,0,0,0-3.21.8,4.14,4.14,0,0,0-1.87,2.75,4.89,4.89,0,0,0,1.07,3.55l4.44,6.34Z" transform="translate(-106.85 -263.59)"/><path class="cls-2" d="M172.08,595.1l31.67-14.38,3,6.51-13.07,5.94,6,13.25,13.07-5.94,3,6.52L184,621.38l-3-6.51,12.63-5.74-6-13.25L175,601.62Z" transform="translate(-106.85 -263.59)"/><path class="cls-2" d="M154.55,575.63l-1.58-7,7.52-4.76,1.37,6.12Zm11.1-22.33A19.1,19.1,0,0,1,191,547.6a19,19,0,0,1,5.69,25.34,19.1,19.1,0,0,1-25.34,5.7,19,19,0,0,1-5.69-25.34Zm21.86.61a12.92,12.92,0,0,0-16,3.6,10.83,10.83,0,0,0,3.33,14.82,12.92,12.92,0,0,0,16-3.6,10.83,10.83,0,0,0-3.33-14.82Z" transform="translate(-106.85 -263.59)"/><path class="cls-2" d="M170.93,531l23-.43.13,7-34.79.65-.13-7.14,22.79-15.68-23.07.43-.13-7,34.78-.64.13,7.2Z" transform="translate(-106.85 -263.59)"/><path class="cls-2" d="M184.49,481.92l-6.31-1.15,2.68-14.7c.48.06,1.08.15,1.79.28q7.9,1.44,11.91,7.2a16.67,16.67,0,0,1,2.68,13,17.34,17.34,0,0,1-7.16,11.72q-5.76,4-13.72,2.56t-11.94-7.33A18.59,18.59,0,0,1,167.28,470a15.57,15.57,0,0,1,10.32-4.07l-1.37,7.56a7.8,7.8,0,0,0-5.08,2.42,10.41,10.41,0,0,0-2.69,5.48,9.56,9.56,0,0,0,1.65,7.92,11.78,11.78,0,0,0,7.6,4.18,12,12,0,0,0,8.62-1.25,9.46,9.46,0,0,0,4.4-6.79,10.41,10.41,0,0,0-.68-6.38,9,9,0,0,0-4.24-4.33Z" transform="translate(-106.85 -263.59)"/><path class="cls-2" d="M218.76,425.91l-3.79,8-17.75,2.5,2.94,7.27,8.28,3.95L205.36,454l-31.41-15,3.08-6.45L192,439.75l-8.87-19.91,4-8.4,7.36,18.15Z" transform="translate(-106.85 -263.59)"/><path class="cls-2" d="M208.81,381.09l28,20.64-4.25,5.76L221,399l-8.63,11.72,11.56,8.51L219.7,425l-28-20.63,4.24-5.76,11.17,8.22,8.63-11.71-11.17-8.23Z" transform="translate(-106.85 -263.59)"/><path class="cls-2" d="M219.28,354.61l5.26-4.86,2.78,8.84-4.62,4.25Zm24.28,40.3-5.49,5L223.9,365.74l5.82-5.35,32.75,17.15-5.24,4.82-5.6-3-10.53,9.67Zm-10.68-25.46,0,0,5.6,13.29,7.16-6.58Z" transform="translate(-106.85 -263.59)"/><path class="cls-2" d="M252.5,342.64l15.62,6.43,1.94-16.78,5.66-3.33,17.66,30-5.91,3.48-12-20.43-2.05,15.82-.17.1L258.38,352l12,20.43-5.91,3.48-17.67-30Z" transform="translate(-106.85 -263.59)"/><path class="cls-2" d="M312.16,347.51q-6-3.75-7.78-11.63T306.25,322a16.9,16.9,0,0,1,11.09-7.7,17.55,17.55,0,0,1,11.78,1,15.24,15.24,0,0,1,7.72,8.43l-7.45,1.72a8.46,8.46,0,0,0-4.29-4.16,9.87,9.87,0,0,0-6.22-.39,9.16,9.16,0,0,0-6.45,4.61q-1.87,3.56-.7,8.62c.79,3.37,2.26,5.85,4.42,7.42a9.15,9.15,0,0,0,7.82,1.31,9.81,9.81,0,0,0,5.42-3.1,8.48,8.48,0,0,0,2-5.62l7.44-1.73a15.14,15.14,0,0,1-3.22,11,17.43,17.43,0,0,1-10.12,6.12A16.89,16.89,0,0,1,312.16,347.51Z" transform="translate(-106.85 -263.59)"/><path class="cls-2" d="M373.67,309.83l.58,34.78-7.15.12-.24-14.35-14.55.24.24,14.36-7.15.12-.59-34.79,7.15-.12.24,13.87,14.55-.25L366.51,310Z" transform="translate(-106.85 -263.59)"/><path class="cls-2" d="M405.26,347.21A16.28,16.28,0,0,1,384.62,343q-3.35-4.64-1.87-11.79l4.12-20.06,7,1.44-4.17,20.25a9,9,0,0,0,.64,6.28q1.39,2.55,5.15,3.31a7.06,7.06,0,0,0,6-1,8.93,8.93,0,0,0,3.06-5.52l4.16-20.26,7,1.44-4.12,20.07Q410.17,344.26,405.26,347.21Z" transform="translate(-106.85 -263.59)"/><path class="cls-2" d="M446.17,328.93l7.62,3.24L433.11,348l-4.75,11.18-6.58-2.8,4.75-11.18-3-25.86,7.62,3.24,1.49,17.27h0Z" transform="translate(-106.85 -263.59)"/><path class="cls-2" d="M465.79,373.52,462.18,379l-20.92-13.76,19.12-29.07,20.92,13.77-3.61,5.48-14.94-9.83-4,6.1,14.33,9.43-3.61,5.48-14.33-9.42-4.28,6.51Zm2.7-40.93,8.83.94,4.35,7.73-3,4.59-4.46-7.57-8.72-1.1Z" transform="translate(-106.85 -263.59)"/><path class="cls-2" d="M486.88,370.18l-16.05,16.46-5-4.86,24.29-24.91,5.11,5L490.06,389l16.11-16.52,5,4.86-24.28,24.91-5.16-5Z" transform="translate(-106.85 -263.59)"/><path class="cls-2" d="M513.72,443.36l-4.5-7.59,7.83-16.12L509.37,418l-7.89,4.67-3.64-6.15,29.93-17.73,3.65,6.15-14.25,8.44,21.46,3.75,4.75,8-19.18-4Z" transform="translate(-106.85 -263.59)"/><path class="cls-2" d="M556.47,460l-32.73,11.78-2.43-6.73,13.51-4.87-4.92-13.69-13.51,4.86L514,444.65l32.74-11.78,2.42,6.73-13,4.7L541,458l13-4.69Z" transform="translate(-106.85 -263.59)"/><path class="cls-2" d="M559.54,502.21a19.08,19.08,0,0,1-25.71,3.66,18.94,18.94,0,0,1-3.66-25.71,19.08,19.08,0,0,1,25.71-3.66,19,19,0,0,1,3.66,25.71Zm-21.74-2.35a12.91,12.91,0,0,0,16.25-2.31,10.83,10.83,0,0,0-2.14-15,12.94,12.94,0,0,0-16.25,2.31,10.83,10.83,0,0,0,2.14,15Z" transform="translate(-106.85 -263.59)"/><path class="cls-2" d="M529.68,518.44,530,511l34.19,14.11-.37,8.08-35.32,10.91.32-7.11,6.07-1.84.65-14.28Zm25.53,10.5v-.11l-13.34-5.43-.45,9.73Z" transform="translate(-106.85 -263.59)"/><path class="cls-2" d="M546,571l-22-6.64,2-6.66,33.3,10.05-2.06,6.84-26.5,7.93,22.09,6.67-2,6.66-33.3-10.05,2.08-6.9Z" transform="translate(-106.85 -263.59)"/><path class="cls-2" d="M532.46,632.94l-30.71-16.35,3.36-6.31L517.78,617l6.84-12.84L512,597.43l3.37-6.31L546,607.47l-3.36,6.31-12.24-6.51-6.84,12.84,12.24,6.52Z" transform="translate(-106.85 -263.59)"/><path class="cls-2" d="M521.79,647.68l-28.17-20.41,4.2-5.8L526,641.89Z" transform="translate(-106.85 -263.59)"/><path class="cls-7" d="M531.55,723.4v41.32h-11.9V702.17h12.21l26.08,41.49V702.17h11.89v62.55H557.52Z" transform="translate(-106.85 -263.59)"/><path class="cls-7" d="M430,710.36q9.13,9.21,9.13,23.26T430,756.88q-9.14,9.21-23.27,9.21t-23.27-9.21q-9.12-9.23-9.13-23.26t9.13-23.26q9.13-9.23,23.27-9.22T430,710.36Zm-9.66,38q5.26-5.58,5.27-14.7t-5.27-14.7a19.39,19.39,0,0,0-27.22,0q-5.27,5.57-5.27,14.7t5.27,14.7a19.41,19.41,0,0,0,27.22,0Z" transform="translate(-106.85 -263.59)"/><path class="cls-7" d="M501.48,710.33q9.15,9.2,9.16,23.25t-9.1,23.27q-9.12,9.23-23.26,9.24T455,756.9q-9.15-9.21-9.16-23.25t9.1-23.27q9.12-9.23,23.26-9.24T501.48,710.33Zm-9.61,38q5.26-5.58,5.25-14.71t-5.29-14.69a19.4,19.4,0,0,0-27.22,0q-5.25,5.58-5.25,14.71t5.29,14.69a19.4,19.4,0,0,0,27.22,0Z" transform="translate(-106.85 -263.59)"/><path class="cls-7" d="M287.86,762.81a9.48,9.48,0,0,1-12.54,0,8.22,8.22,0,0,1-2.45-6.15,8.37,8.37,0,0,1,2.45-6.14,9.14,9.14,0,0,1,12.5,0,8.29,8.29,0,0,1,2.49,6.14A8.18,8.18,0,0,1,287.86,762.81Z" transform="translate(-106.85 -263.59)"/><path class="cls-7" d="M313.92,703.23,333.3,727.1l19.38-23.87h12.48v61.63h-13v-42l-18.64,22.31h-.37l-18.63-22.31v42H301.43V703.23Z" transform="translate(-106.85 -263.59)"/><path class="cls-7" d="M267.82,765.11H254.06l-10.82-23.66h-11.4v23.66H220V702.67h26.22q9.2,0,14.25,5.36t5,14.16a22,22,0,0,1-2.64,11,16.05,16.05,0,0,1-7.62,6.86ZM251.7,727.69a7.68,7.68,0,0,0,1.88-5.5,8.06,8.06,0,0,0-1.92-5.63,7,7,0,0,0-5.49-2.11H231.84v15.22h14.33A7.26,7.26,0,0,0,251.7,727.69Z" transform="translate(-106.85 -263.59)"/><path class="cls-7" d="M178.33,765.63H156.54v-62.5h21.79q15.12,0,23.54,8.63t8.42,22.62q0,14-8.42,22.63T178.33,765.63Zm14.06-16.94q4.74-5.16,4.74-14.31t-4.74-14.3q-4.74-5.16-14.4-5.16h-9v38.92h9Q187.65,753.84,192.39,748.69Z" transform="translate(-106.85 -263.59)"/></svg>